# xmcd
# 
# Track frame offsets:
#     150
#     28317
#     47782
#     75342
#     92440
#     114835
#     125302
#     167775
#     187482
#     207805
#     242035
# 
# Disc length: 3420
# 
# Revision: 2
# Processed by: cddbd v1.5.2PL0 Copyright (c) Steve Scherf et al.
# Submitted via: fre:ac v1.0.27
# 
DISCID=8c0d5a0b
DTITLE=玉代勢長伝 - 八重山の歌 (上巻その一)
DYEAR=0
DGENRE=
TTITLE0=赤馬節 しゅうら節
TTITLE1=鷲ぬ鳥節
TTITLE2=鶴亀節   こうゆば節
TTITLE3=鳩間節
TTITLE4=白鳥節 きやいそう節
TTITLE5=真栄里節
TTITLE6=蔵ぬばな節 大浦越路節
TTITLE7=下原
TTITLE8=あがろうざ節
TTITLE9=無蔵念佛節
TTITLE10=松にやーま節
EXTD=
EXTT0=
EXTT1=
EXTT2=
EXTT3=
EXTT4=
EXTT5=
EXTT6=
EXTT7=
EXTT8=
EXTT9=
EXTT10=
PLAYORDER=
